<svg width="24" height="34" viewBox="0 0 24 34" fill="none" xmlns="http://www.w3.org/2000/svg">
<path fill-rule="evenodd" clip-rule="evenodd" d="M11.9827 0.424316C18.3901 0.424316 23.5724 5.60655 23.5724 12.014C23.5724 20.7062 11.9827 33.5376 11.9827 33.5376C11.9827 33.5376 0.393066 20.7062 0.393066 12.014C0.393066 5.60655 5.5753 0.424316 11.9827 0.424316ZM3.70428 12.014C3.70428 16.7327 8.53882 23.9514 11.9826 28.372C15.4926 23.9183 20.2609 16.7823 20.2609 12.014C20.2609 7.44438 16.5522 3.73569 11.9826 3.73569C7.41297 3.73569 3.70428 7.44438 3.70428 12.014ZM11.9824 16.1534C9.69642 16.1534 7.84325 14.3002 7.84325 12.0142C7.84325 9.72821 9.69642 7.87504 11.9824 7.87504C14.2684 7.87504 16.1216 9.72821 16.1216 12.0142C16.1216 14.3002 14.2684 16.1534 11.9824 16.1534Z" fill="white"/>
</svg>
