<svg width="26" height="22" viewBox="0 0 26 22" fill="none" xmlns="http://www.w3.org/2000/svg">
<path fill-rule="evenodd" clip-rule="evenodd" d="M0.000137329 10.9394C0.000137329 10.525 0.164757 10.1276 0.457781 9.83458C0.750807 9.54155 1.14824 9.37693 1.56264 9.37693H19.6658L12.9564 2.67068C12.8111 2.52541 12.6959 2.35294 12.6173 2.16313C12.5386 1.97332 12.4982 1.76988 12.4982 1.56443C12.4982 1.35898 12.5386 1.15555 12.6173 0.965734C12.6959 0.775925 12.8111 0.603458 12.9564 0.458183C13.1017 0.312908 13.2741 0.19767 13.4639 0.119047C13.6537 0.0404263 13.8572 -4.00543e-05 14.0626 -4.00543e-05C14.2681 -4.00543e-05 14.4715 0.0404263 14.6613 0.119047C14.8511 0.19767 15.0236 0.312908 15.1689 0.458183L24.5439 9.83318C24.6894 9.97832 24.8048 10.1508 24.8836 10.3406C24.9624 10.5304 25.0029 10.7339 25.0029 10.9394C25.0029 11.145 24.9624 11.3485 24.8836 11.5383C24.8048 11.7281 24.6894 11.9005 24.5439 12.0457L15.1689 21.4207C14.8755 21.7141 14.4776 21.8789 14.0626 21.8789C13.6477 21.8789 13.2498 21.7141 12.9564 21.4207C12.663 21.1273 12.4982 20.7294 12.4982 20.3144C12.4982 19.8995 12.663 19.5016 12.9564 19.2082L19.6658 12.5019H1.56264C1.14824 12.5019 0.750807 12.3373 0.457781 12.0443C0.164757 11.7513 0.000137329 11.3538 0.000137329 10.9394Z" fill="black"/>
</svg>
