<svg width="21" height="42" viewBox="0 0 21 42" fill="none" xmlns="http://www.w3.org/2000/svg">
<path d="M3.16667 41.4167C2.48519 41.418 1.82475 41.1806 1.30001 40.7458C1.00467 40.501 0.760539 40.2003 0.581595 39.8609C0.402652 39.5216 0.292413 39.1503 0.257191 38.7682C0.22197 38.3862 0.262459 38.001 0.376339 37.6347C0.490219 37.2683 0.675249 36.928 0.920839 36.6333L13.9875 21L1.38751 5.33749C1.14523 5.03915 0.964306 4.69587 0.85513 4.32738C0.745954 3.95889 0.71068 3.57246 0.751337 3.19029C0.791992 2.80812 0.907775 2.43776 1.09203 2.10049C1.27629 1.76321 1.52539 1.46568 1.82501 1.22499C2.12678 0.959466 2.48018 0.759186 2.86303 0.636718C3.24588 0.51425 3.64991 0.472239 4.04977 0.51332C4.44962 0.554401 4.83667 0.677688 5.18662 0.875443C5.53656 1.0732 5.84186 1.34115 6.08334 1.66249L20.1708 19.1625C20.5998 19.6844 20.8343 20.339 20.8343 21.0146C20.8343 21.6901 20.5998 22.3448 20.1708 22.8667L5.58751 40.3667C5.29491 40.7196 4.92323 40.9986 4.50262 41.1811C4.08201 41.3635 3.62432 41.4442 3.16667 41.4167Z" fill="#545454"/>
</svg>
