<svg width="30" height="30" viewBox="0 0 30 30" fill="none" xmlns="http://www.w3.org/2000/svg">
<path fill-rule="evenodd" clip-rule="evenodd" d="M5.94287 3.39136C6.04221 4.8649 6.29056 6.30533 6.68792 7.67953L4.70112 9.66633C4.0223 7.67953 3.59183 5.57684 3.44282 3.39136H5.94287V3.39136ZM22.2676 23.2924C23.6749 23.6898 25.1153 23.9382 26.5723 24.0375V26.5044C24.3868 26.3554 22.2842 25.925 20.2808 25.2627L22.2676 23.2924V23.2924ZM7.53204 0.0800781H1.73721C0.826592 0.0800781 0.081543 0.825127 0.081543 1.73574C0.081543 17.2824 12.6812 29.8821 28.2279 29.8821C29.1385 29.8821 29.8835 29.137 29.8835 28.2264V22.4481C29.8835 21.5375 29.1385 20.7924 28.2279 20.7924C26.1748 20.7924 24.1715 20.4613 22.3171 19.8487C22.1516 19.7825 21.9694 19.7659 21.8039 19.7659C21.3734 19.7659 20.9595 19.9315 20.6283 20.2461L16.9859 23.8885C12.3004 21.4878 8.45921 17.6632 6.07505 12.9777L9.71751 9.33525C10.1811 8.87166 10.3136 8.22595 10.1314 7.64647C9.51883 5.79212 9.1877 3.80532 9.1877 1.73574C9.1877 0.825127 8.44265 0.0800781 7.53204 0.0800781Z" fill="white"/>
</svg>
