<svg width="21" height="42" viewBox="0 0 21 42" fill="none" xmlns="http://www.w3.org/2000/svg">
<path d="M17.8336 41.4167C18.5151 41.418 19.1755 41.1806 19.7002 40.7458C19.9956 40.501 20.2397 40.2003 20.4186 39.8609C20.5976 39.5216 20.7078 39.1503 20.7431 38.7682C20.7783 38.3862 20.7378 38.001 20.6239 37.6347C20.51 37.2683 20.325 36.928 20.0794 36.6333L7.01274 21L19.6127 5.33749C19.855 5.03915 20.0359 4.69587 20.1451 4.32738C20.2543 3.95889 20.2896 3.57246 20.2489 3.19029C20.2083 2.80812 20.0925 2.43776 19.9082 2.10049C19.724 1.76321 19.4749 1.46568 19.1752 1.22499C18.8735 0.959466 18.5201 0.759186 18.1372 0.636718C17.7544 0.51425 17.3503 0.472239 16.9505 0.51332C16.5506 0.554401 16.1636 0.677688 15.8136 0.875443C15.4637 1.0732 15.1584 1.34115 14.9169 1.66249L0.829405 19.1625C0.400417 19.6844 0.165901 20.339 0.165901 21.0146C0.165901 21.6901 0.400417 22.3448 0.829405 22.8667L15.4127 40.3667C15.7053 40.7196 16.077 40.9986 16.4976 41.1811C16.9182 41.3635 17.3759 41.4442 17.8336 41.4167Z" fill="#545454"/>
</svg>
