<svg width="26" height="22" viewBox="0 0 26 22" fill="none" xmlns="http://www.w3.org/2000/svg">
<path fill-rule="evenodd" clip-rule="evenodd" d="M25.5001 11C25.5001 11.4144 25.3355 11.8119 25.0425 12.1049C24.7494 12.3979 24.352 12.5625 23.9376 12.5625H5.83448L12.5439 19.2688C12.6891 19.414 12.8044 19.5865 12.883 19.7763C12.9616 19.9661 13.0021 20.1696 13.0021 20.375C13.0021 20.5805 12.9616 20.7839 12.883 20.9737C12.8044 21.1635 12.6891 21.336 12.5439 21.4813C12.3986 21.6265 12.2261 21.7418 12.0363 21.8204C11.8465 21.899 11.6431 21.9395 11.4376 21.9395C11.2322 21.9395 11.0287 21.899 10.8389 21.8204C10.6491 21.7418 10.4766 21.6265 10.3314 21.4813L0.956357 12.1063C0.810847 11.9611 0.6954 11.7887 0.61663 11.5989C0.53786 11.409 0.497314 11.2055 0.497314 11C0.497314 10.7945 0.53786 10.591 0.61663 10.4012C0.6954 10.2113 0.810847 10.0389 0.956357 9.89377L10.3314 0.518771C10.6248 0.225375 11.0227 0.0605469 11.4376 0.0605469C11.8525 0.0605469 12.2505 0.225375 12.5439 0.518771C12.8373 0.812167 13.0021 1.2101 13.0021 1.62502C13.0021 2.03995 12.8373 2.43788 12.5439 2.73127L5.83448 9.43752H23.9376C24.352 9.43752 24.7494 9.60214 25.0425 9.89517C25.3355 10.1882 25.5001 10.5856 25.5001 11Z" fill="black"/>
</svg>
