<svg width="50" height="51" viewBox="0 0 50 51" fill="none" xmlns="http://www.w3.org/2000/svg">
<g clip-path="url(#clip0_2_858)">
<path d="M3.50541 22.2012H24.9993V25.7835H3.50541V22.2012ZM-0.0769043 13.2454H17.8347V16.8277H-0.0769043V13.2454Z" fill="black"/>
<path d="M49.9312 23.2866L44.5577 10.7485C44.4199 10.4262 44.1903 10.1515 43.8977 9.95857C43.6051 9.7656 43.2622 9.66283 42.9117 9.66303H37.5382V6.08071C37.5382 5.60566 37.3495 5.15008 37.0136 4.81417C36.6777 4.47826 36.2221 4.28955 35.747 4.28955H7.0885V7.87187H33.9559V30.3617C33.1397 30.8356 32.4254 31.4664 31.8542 32.2177C31.2831 32.9691 30.8663 33.826 30.6279 34.7392H19.3723C18.9363 33.0508 17.8995 31.5793 16.4562 30.6006C15.013 29.6219 13.2623 29.2031 11.5324 29.4229C9.80244 29.6426 8.21204 30.4857 7.05927 31.7942C5.9065 33.1026 5.27051 34.7866 5.27051 36.5304C5.27051 38.2742 5.9065 39.9582 7.05927 41.2666C8.21204 42.5751 9.80244 43.4182 11.5324 43.6379C13.2623 43.8577 15.013 43.4389 16.4562 42.4602C17.8995 41.4815 18.9363 40.01 19.3723 38.3216H30.6279C31.0175 39.8588 31.9086 41.2222 33.1602 42.1961C34.4118 43.1701 35.9523 43.6988 37.5382 43.6988C39.1241 43.6988 40.6646 43.1701 41.9162 42.1961C43.1678 41.2222 44.0588 39.8588 44.4485 38.3216H48.2852C48.7602 38.3216 49.2158 38.1329 49.5517 37.7969C49.8876 37.461 50.0763 37.0054 50.0763 36.5304V23.9923C50.0764 23.7496 50.027 23.5095 49.9312 23.2866V23.2866ZM12.462 40.1127C11.7535 40.1127 11.0609 39.9026 10.4718 39.509C9.88264 39.1154 9.42349 38.5559 9.15235 37.9013C8.88121 37.2467 8.81027 36.5264 8.9485 35.8315C9.08672 35.1366 9.4279 34.4983 9.9289 33.9973C10.4299 33.4963 11.0682 33.1551 11.7631 33.0169C12.458 32.8787 13.1783 32.9496 13.8329 33.2208C14.4875 33.4919 15.0469 33.9511 15.4406 34.5402C15.8342 35.1293 16.0443 35.8219 16.0443 36.5304C16.0433 37.4802 15.6656 38.3908 14.994 39.0624C14.3224 39.734 13.4118 40.1118 12.462 40.1127V40.1127ZM37.5382 13.2453H41.7295L45.5698 22.2011H37.5382V13.2453ZM37.5382 40.1127C36.8297 40.1127 36.1371 39.9026 35.548 39.509C34.9589 39.1154 34.4997 38.5559 34.2286 37.9013C33.9574 37.2467 33.8865 36.5264 34.0247 35.8315C34.1629 35.1366 34.5041 34.4983 35.0051 33.9973C35.5061 33.4963 36.1444 33.1551 36.8393 33.0169C37.5342 32.8787 38.2545 32.9496 38.9091 33.2208C39.5637 33.4919 40.1232 33.9511 40.5168 34.5402C40.9104 35.1293 41.1205 35.8219 41.1205 36.5304C41.1196 37.4802 40.7418 38.3908 40.0702 39.0624C39.3986 39.734 38.488 40.1118 37.5382 40.1127ZM46.494 34.7392H44.4485C44.0539 33.205 43.1614 31.845 41.9108 30.8726C40.6603 29.9001 39.1224 29.3702 37.5382 29.3658V25.7835H46.494V34.7392Z" fill="black"/>
</g>
<defs>
<clipPath id="clip0_2_858">
<rect width="50" height="50" fill="white" transform="translate(0 0.25)"/>
</clipPath>
</defs>
</svg>
