<svg width="86" height="100" viewBox="0 0 86 100" fill="none" xmlns="http://www.w3.org/2000/svg">
<path fill-rule="evenodd" clip-rule="evenodd" d="M6.86213 0.41312C6.52887 0.675079 6.24074 1.20583 6.03992 1.92705C5.37438 4.31711 5.11144 4.93656 4.35897 5.88867C3.9296 6.43174 3.03628 7.21586 2.37366 7.63136C0.549717 8.77472 0.151406 9.13142 0.0383005 9.72313C-0.14806 10.6985 0.339915 11.4346 1.62842 12.1214C3.93604 13.3513 5.38961 15.3171 5.95241 17.9693C6.28118 19.5186 6.83459 20.1302 7.90802 20.1302C9.03927 20.1302 9.52236 19.5754 9.95642 17.7769C10.1498 16.9761 10.5057 15.9252 10.7474 15.4415C11.3024 14.3308 13.0101 12.7049 14.3177 12.0421C15.455 11.4658 16.0122 10.6403 15.8231 9.81142C15.6482 9.04488 15.3638 8.75499 14.0618 8.0158C11.761 6.70952 10.5927 5.12057 9.94489 2.41698C9.42996 0.268173 8.12485 -0.580216 6.86213 0.41312ZM8.31668 6.5048C8.46007 6.85408 9.26665 7.8312 10.1096 8.67646L11.6419 10.2131L11.1914 10.5131C10.4442 11.0107 8.81286 12.7875 8.40127 13.5523C8.18873 13.9469 7.96897 14.2655 7.9129 14.2604C7.85664 14.2554 7.50307 13.7637 7.12702 13.1681C6.45874 12.1095 5.23158 10.8288 4.48536 10.4111C4.14585 10.2211 4.23668 10.0865 5.48748 8.92846C6.24406 8.22814 7.07623 7.25336 7.33663 6.76246C7.59703 6.27155 7.86543 5.86992 7.93322 5.86992C8.001 5.86992 8.17349 6.15552 8.31668 6.5048ZM78.648 14.807C78.3026 15.1557 78.0285 15.7398 77.8666 16.4719C77.5468 17.9173 76.684 19.0499 75.2591 19.8952C74.4435 20.3791 74.0946 20.7221 73.9393 21.1925C73.6141 22.1784 73.9403 22.7228 75.4382 23.6925C76.8395 24.5997 77.6406 25.7097 77.9426 27.1627C78.2936 28.8508 79.2346 29.5512 80.4625 29.0382C81.1328 28.7581 81.3117 28.4312 81.8417 26.5202C82.1968 25.2397 83.1536 24.1299 84.4908 23.4478C85.0219 23.1768 85.3882 22.8146 85.5689 22.3818C85.9908 21.372 85.6519 20.666 84.4079 19.964C82.9362 19.1333 82.2232 18.2264 81.7354 16.5645C81.0767 14.3204 79.8314 13.6115 78.648 14.807ZM80.7499 20.7346L81.6065 21.69L80.7499 22.6193C80.2789 23.1305 79.8361 23.5488 79.7657 23.5488C79.6956 23.5488 79.268 23.1286 78.816 22.6148L77.9938 21.6809L78.8461 20.7301C79.3147 20.2072 79.7421 19.7792 79.7958 19.7792C79.8495 19.7792 80.2789 20.2091 80.7499 20.7346ZM15.5255 21.5465C14.6957 22.1118 10.7823 28.7377 10.7771 29.5865C10.7747 29.9657 10.9505 30.307 11.3053 30.6121C12.4186 31.5697 12.9476 31.1745 14.7586 28.0325C15.6857 26.4239 16.238 25.6468 16.3642 25.773C16.4698 25.8787 18.8562 29.9487 21.667 34.8173L26.7775 43.6694L16.3355 43.72C10.5923 43.7478 5.86157 43.739 5.82309 43.7003C5.78441 43.6616 6.76388 41.8808 7.99964 39.7428C10.4647 35.478 10.6401 34.9191 9.73783 34.2094C9.07638 33.689 8.63686 33.6978 8.01898 34.244C7.35499 34.831 2.0363 44.0787 1.90796 44.8692C1.85053 45.2234 1.92964 45.7368 2.09178 46.0616C2.36546 46.6106 39.1915 88.0298 40.7367 89.5269C41.3806 90.1507 41.622 90.2595 42.3634 90.2595C42.8424 90.2595 43.3706 90.2071 43.5372 90.1433C43.8799 90.0116 82.4975 46.9071 82.8653 46.2454C83.4238 45.241 83.1982 44.5582 81.1035 40.9176C79.9963 38.993 77.1688 34.0779 74.8204 29.9952C72.4719 25.9124 70.3671 22.3659 70.143 22.1139C69.1967 21.0501 70.7595 21.1069 42.4257 21.1069H16.1708L15.5255 21.5465ZM39.4119 24.975C39.1144 25.4907 36.7611 29.5758 34.1825 34.0531C31.6039 38.5304 29.4502 42.1949 29.3965 42.1965C29.3201 42.1989 24.3601 33.6735 19.3811 24.9818L18.84 24.0371H29.3965H39.953L39.4119 24.975ZM66.1216 24.1172C66.1216 24.4427 55.6788 42.192 55.5598 42.069C55.3606 41.8629 45.2195 24.2833 45.2195 24.1438C45.2195 24.0852 49.9225 24.0371 55.6706 24.0371C61.4186 24.0371 66.1216 24.0733 66.1216 24.1172ZM47.8579 34.6835L53.0437 43.6694L52.4808 43.9027C50.9307 44.5448 51.4394 46.6973 53.141 46.6973C53.5878 46.6973 53.6483 46.7621 53.5516 47.1368C53.0088 49.2426 42.5677 84.3991 42.4853 84.3991C42.4257 84.3991 39.9272 76.0262 36.933 65.7924C33.9387 55.5588 31.4482 47.0759 31.3984 46.9415C31.3273 46.7489 32.8791 46.6973 38.7522 46.6973C45.9359 46.6973 46.2099 46.6836 46.587 46.3066C47.1804 45.7131 47.1722 44.8761 46.5668 44.2555C46.2033 43.8827 45.8599 43.8603 39.0913 43.7671L31.9969 43.6694L37.192 34.6434C40.0493 29.6791 42.4511 25.6354 42.5294 25.6575C42.6078 25.6796 45.0056 29.7412 47.8579 34.6835ZM74.2169 34.846L79.3696 43.7671H68.8387C63.0466 43.7671 58.3077 43.7292 58.3077 43.6829C58.3077 43.6366 60.6494 39.5433 63.5112 34.587C66.5748 29.2812 68.7865 25.6472 68.8896 25.7503C68.9858 25.8464 71.383 29.9395 74.2169 34.846ZM32.6574 61.6413C35.0498 69.8067 37.4428 77.975 37.9751 79.7926L38.9433 83.0977L38.2961 82.4298C37.1648 81.2626 6.54099 46.8942 6.54099 46.792C6.54099 46.7381 11.4385 46.7166 17.4243 46.7446L28.3078 46.795L32.6574 61.6413ZM78.103 47.3322C77.7744 47.6812 70.7566 55.5269 62.5077 64.7668C54.2588 74.0067 47.1677 81.9182 46.7499 82.348C45.9939 83.1255 45.991 83.1264 46.1859 82.5433C46.2938 82.221 48.5418 74.6171 51.1817 65.6459C53.8216 56.6746 56.157 48.7412 56.3715 48.0159L56.7616 46.6973H67.731H78.7003L78.103 47.3322ZM67.4425 73.474C66.9356 73.7693 66.7162 74.286 66.0985 76.6405C65.4906 78.9575 64.82 80.3093 63.578 81.7203C62.7737 82.634 60.7755 84.0633 59.4224 84.6929C58.1646 85.2782 57.7227 86.7812 58.513 87.7858C58.7332 88.0659 59.5464 88.6266 60.32 89.0319C62.2102 90.0223 64.2941 92.0858 65.1109 93.7757C65.4484 94.4741 65.951 95.9245 66.2279 96.9989C66.6338 98.5744 66.8477 99.0606 67.3331 99.5117C67.8479 99.9897 68.0485 100.056 68.7175 99.9659C69.8851 99.8092 70.1987 99.3552 70.8228 96.9171C71.1295 95.719 71.6683 94.1987 72.0201 93.5386C72.9149 91.8594 74.6897 90.1593 76.7568 89.0005C78.1364 88.2271 78.5364 87.8997 78.7624 87.359C79.0035 86.7819 79.0056 86.5809 78.7777 85.9808C78.5071 85.2686 78.376 85.1639 76.0462 83.7982C74.5158 82.9012 74.0925 82.8568 73.426 83.5234C72.6522 84.2971 72.8335 85.1098 73.9663 85.9464L74.8764 86.6184L73.771 87.384C71.6595 88.8466 69.9168 90.8926 68.9854 93.0033L68.5306 94.0338L67.7857 92.5265C66.9334 90.8016 64.9847 88.586 63.2973 87.4239C62.7019 87.0138 62.2147 86.6567 62.2147 86.6303C62.2147 86.6038 62.7765 86.1813 63.4633 85.6911C65.207 84.447 66.7594 82.6582 67.7146 80.7926L68.5279 79.2047L68.9885 79.6651C69.6095 80.2863 70.5294 80.1978 71.0744 79.4645L71.4754 78.9251L70.9169 76.6355C70.2573 73.9311 69.7816 73.2603 68.5296 73.2702C68.1184 73.2736 67.6293 73.3652 67.4425 73.474Z" fill="white"/>
</svg>
