<svg width="40" height="25" viewBox="0 0 40 25" fill="none" xmlns="http://www.w3.org/2000/svg">
<path d="M25.1897 21.8729H14.6343V2.90332H25.1899L25.1897 21.8729Z" fill="#FF5F00"/>
<path d="M15.3038 12.3885C15.3038 8.54049 17.1055 5.11269 19.9112 2.90367C17.7874 1.22909 15.1607 0.320236 12.4562 0.324232C5.79403 0.324232 0.393555 5.72549 0.393555 12.3885C0.393555 19.0514 5.79403 24.4527 12.4562 24.4527C15.1608 24.4567 17.7876 23.5479 19.9113 21.8733C17.1059 19.6646 15.3038 16.2366 15.3038 12.3885Z" fill="#EB001B"/>
<path d="M39.4304 12.3885C39.4304 19.0514 34.0299 24.4527 27.3677 24.4527C24.6629 24.4567 22.0358 23.5478 19.9116 21.8733C22.718 19.6642 24.5197 16.2366 24.5197 12.3885C24.5197 8.54029 22.718 5.11269 19.9116 2.90367C22.0357 1.22914 24.6627 0.320306 27.3675 0.324231C34.0297 0.324231 39.4302 5.72549 39.4302 12.3885" fill="#F79E1B"/>
</svg>
