<svg width="45" height="18" viewBox="0 0 45 18" fill="none" xmlns="http://www.w3.org/2000/svg">
<path d="M15.2693 13.8442C15.016 14.4352 14.7025 14.9985 14.3338 15.5252C13.8441 16.2269 13.4421 16.7093 13.1351 16.9797C12.6527 17.4182 12.1411 17.6448 11.5929 17.6594C11.1982 17.6594 10.7232 17.5498 10.1677 17.3159C9.68266 17.1056 9.16139 16.9914 8.63283 16.9797C8.0899 16.9895 7.55392 17.1036 7.05411 17.3159C6.49132 17.5425 6.03817 17.6594 5.68735 17.6741C5.16111 17.696 4.63487 17.4621 4.10863 16.9724C3.77242 16.68 3.35581 16.1757 2.8515 15.4668C2.28594 14.6544 1.8381 13.7661 1.52128 12.8283C1.14853 11.7465 0.958496 10.7014 0.958496 9.68544C0.958496 8.52333 1.207 7.52201 1.71131 6.68149C2.09288 6.02237 2.63624 5.47146 3.29003 5.08084C3.93463 4.69199 4.67147 4.48255 5.42423 4.4742C5.84083 4.4742 6.39631 4.60576 7.07604 4.86157C7.75576 5.11738 8.1943 5.24894 8.38433 5.24894C8.5305 5.24894 9.01289 5.09546 9.8388 4.79579C10.6184 4.51806 11.2762 4.40111 11.8122 4.44497C13.274 4.56191 14.3703 5.13931 15.1012 6.17717C13.7929 6.96653 13.1497 8.07748 13.1643 9.49541C13.179 10.6064 13.5809 11.5273 14.3703 12.2582C14.7211 12.5888 15.1267 12.8558 15.569 13.0475C15.4813 13.3253 15.3789 13.5884 15.2693 13.8442V13.8442ZM11.9218 0.673581C11.9218 1.54334 11.6075 2.35462 10.9717 3.10013C10.2115 3.99182 9.28332 4.50344 8.28931 4.42304C8.27424 4.31406 8.26691 4.20415 8.26738 4.09414C8.26738 3.26093 8.63283 2.36924 9.27601 1.63835C9.61777 1.25037 10.0357 0.936886 10.5039 0.717434C10.9404 0.492966 11.4177 0.358736 11.9072 0.322754C11.9145 0.439696 11.9218 0.556638 11.9218 0.673581Z" fill="#272727"/>
<path d="M25.1583 9.39315C25.5189 9.39315 25.8332 9.3493 26.1012 9.26159C26.3692 9.16901 26.5909 9.03989 26.7663 8.87422C26.9466 8.70368 27.0806 8.49903 27.1683 8.26027C27.256 8.01664 27.2998 7.74622 27.2998 7.44899C27.2998 7.16638 27.256 6.91057 27.1683 6.68155C27.0806 6.45254 26.949 6.25764 26.7736 6.09684C26.5982 5.93605 26.3765 5.81423 26.1085 5.7314C25.8405 5.64369 25.5238 5.59984 25.1583 5.59984H23.6892V9.39315H25.1583ZM25.1583 4.07959C25.8648 4.07959 26.4764 4.16242 26.9929 4.32809C27.5093 4.49376 27.9357 4.72521 28.2719 5.02244C28.6081 5.31967 28.8566 5.67536 29.0174 6.08953C29.1831 6.5037 29.2659 6.95686 29.2659 7.44899C29.2659 7.96061 29.1806 8.43081 29.0101 8.8596C28.8396 9.28352 28.5838 9.64896 28.2427 9.95594C27.9016 10.2629 27.4728 10.5017 26.9563 10.6722C26.4447 10.8427 25.8454 10.928 25.1583 10.928H23.6892V14.6482H21.7231V4.07959H25.1583Z" fill="#272727"/>
<path d="M34.5139 11.447C33.9926 11.4713 33.554 11.5176 33.1983 11.5858C32.8426 11.6492 32.5576 11.732 32.3432 11.8343C32.1288 11.9366 31.9753 12.056 31.8827 12.1925C31.7901 12.3289 31.7439 12.4775 31.7439 12.6383C31.7439 12.955 31.8364 13.1816 32.0216 13.318C32.2116 13.4545 32.4577 13.5227 32.7598 13.5227C33.1301 13.5227 33.4493 13.4569 33.7173 13.3253C33.9901 13.1889 34.2557 12.9843 34.5139 12.7114V11.447ZM30.3771 8.19449C31.2395 7.40513 32.2774 7.01045 33.4907 7.01045C33.9292 7.01045 34.3215 7.08354 34.6674 7.22972C35.0134 7.37103 35.3057 7.5708 35.5445 7.82905C35.7832 8.08242 35.9635 8.38696 36.0853 8.74266C36.212 9.09836 36.2754 9.48817 36.2754 9.91208V14.6482H35.4568C35.2862 14.6482 35.1547 14.6239 35.0621 14.5752C34.9695 14.5216 34.8964 14.4168 34.8428 14.2609L34.682 13.72C34.492 13.8906 34.3068 14.0416 34.1266 14.1732C33.9463 14.2999 33.7587 14.4071 33.5638 14.4948C33.3689 14.5825 33.1593 14.6482 32.9352 14.6921C32.7159 14.7408 32.4723 14.7652 32.2043 14.7652C31.8876 14.7652 31.5952 14.7238 31.3273 14.6409C31.0593 14.5532 30.8278 14.4241 30.6329 14.2536C30.438 14.083 30.287 13.8711 30.1798 13.6177C30.0726 13.3643 30.019 13.0695 30.019 12.7333C30.019 12.5433 30.0506 12.3557 30.114 12.1705C30.1773 11.9805 30.2796 11.8002 30.4209 11.6297C30.5671 11.4591 30.7547 11.2983 30.9837 11.1473C31.2127 10.9962 31.4929 10.8647 31.8243 10.7526C32.1605 10.6405 32.5503 10.5504 32.9937 10.4822C33.4371 10.4091 33.9438 10.3652 34.5139 10.3506V9.91208C34.5139 9.41021 34.4067 9.03989 34.1923 8.80113C33.9779 8.5575 33.6685 8.43569 33.2641 8.43569C32.9718 8.43569 32.7281 8.4698 32.5332 8.53801C32.3432 8.60623 32.1751 8.68419 32.0289 8.7719C31.8827 8.85473 31.7487 8.93026 31.6269 8.99847C31.51 9.06669 31.3784 9.1008 31.2322 9.1008C31.1055 9.1008 30.9984 9.06912 30.9106 9.00578C30.8229 8.93757 30.7523 8.8596 30.6987 8.7719L30.3771 8.19449Z" fill="#272727"/>
<path d="M44.8657 7.14932L40.78 16.7093C40.7264 16.836 40.6558 16.9311 40.5681 16.9944C40.4852 17.0626 40.3561 17.0967 40.1807 17.0967H38.8359L40.2392 14.0855L37.206 7.14932H38.792C38.9333 7.14932 39.043 7.18343 39.1209 7.25165C39.2038 7.31986 39.2647 7.39783 39.3036 7.48553L40.897 11.3739C40.9506 11.5054 40.9944 11.637 41.0285 11.7685C41.0675 11.9001 41.1041 12.0341 41.1382 12.1705C41.182 12.0341 41.2259 11.9001 41.2697 11.7685C41.3136 11.6321 41.3623 11.4981 41.4159 11.3666L42.9215 7.48553C42.9605 7.38808 43.0239 7.30768 43.1116 7.24434C43.2042 7.181 43.3065 7.14932 43.4185 7.14932H44.8657Z" fill="#272727"/>
</svg>
