<svg width="43" height="18" viewBox="0 0 43 18" fill="none" xmlns="http://www.w3.org/2000/svg">
<path d="M20.4095 8.67299V13.6871H18.8276V1.30981H23.0229C24.0349 1.29006 25.0076 1.675 25.7445 2.38566C26.4814 3.04696 26.894 4.00438 26.8744 4.9914C26.894 5.98829 26.4814 6.9457 25.7445 7.61688C25.0076 8.31766 24.1037 8.67299 23.0328 8.67299H20.4095V8.67299ZM20.4095 2.82982V7.15298H23.0622C23.6517 7.17272 24.2216 6.93583 24.6244 6.51141C25.4595 5.70206 25.4694 4.36957 24.6637 3.53061L24.6244 3.49112C24.2216 3.05683 23.6517 2.81995 23.0622 2.83969L20.4095 2.82982V2.82982ZM30.5195 4.94205C31.6886 4.94205 32.6122 5.2579 33.2901 5.87972C33.968 6.51141 34.3021 7.37012 34.3021 8.46572V13.6772H32.789V12.5026H32.7203C32.062 13.4699 31.1974 13.9536 30.1068 13.9536C29.1832 13.9536 28.3972 13.6772 27.7783 13.1245C27.1691 12.6112 26.8252 11.8512 26.8449 11.0517C26.8449 10.1733 27.1789 9.48235 27.8372 8.95923C28.4955 8.43611 29.3797 8.17948 30.4802 8.17948C31.4234 8.17948 32.1897 8.35715 32.7989 8.69273V8.32754C32.7989 7.78467 32.5631 7.27142 32.1504 6.92596C31.7279 6.55089 31.1876 6.34362 30.6275 6.34362C29.7433 6.34362 29.0457 6.71869 28.525 7.46883L27.1298 6.59038C27.8863 5.49478 29.0162 4.94205 30.5195 4.94205V4.94205ZM28.4758 11.0912C28.4758 11.5057 28.6723 11.8907 28.9966 12.1276C29.3503 12.4039 29.7826 12.552 30.2247 12.5421C30.8928 12.5421 31.5314 12.2756 32.003 11.8019C32.5238 11.3083 32.789 10.726 32.789 10.0548C32.2978 9.66002 31.61 9.46261 30.7258 9.46261C30.0871 9.46261 29.5468 9.62053 29.1145 9.92651C28.692 10.2424 28.4758 10.6273 28.4758 11.0912V11.0912ZM42.9874 5.21841L37.7016 17.418H36.0706L38.0356 13.1541L34.5575 5.22828H36.2769L38.7823 11.3083H38.8216L41.2681 5.22828L42.9874 5.21841Z" fill="#5F6368"/>
<path d="M14.0137 7.58705C14.0137 7.10341 13.9744 6.61977 13.8958 6.146H7.22461V8.88005H11.0466C10.8894 9.7585 10.3785 10.5481 9.63175 11.0416V12.8183H11.9112C13.2474 11.5845 14.0137 9.7585 14.0137 7.58705Z" fill="#4285F4"/>
<path d="M7.22474 14.536C9.1308 14.536 10.7421 13.9043 11.9113 12.8186L9.63188 11.0419C8.99325 11.4762 8.17777 11.723 7.22474 11.723C5.37763 11.723 3.81544 10.4694 3.25541 8.7915H0.907227V10.6274C2.10588 13.016 4.55232 14.536 7.22474 14.536Z" fill="#34A853"/>
<path d="M3.25511 8.79139C2.96036 7.91294 2.96036 6.95552 3.25511 6.0672V4.24121H0.906927C0.407977 5.22919 0.147949 6.32144 0.147949 7.42929C0.147949 8.53715 0.407977 9.6294 0.906927 10.6174L3.25511 8.79139V8.79139Z" fill="#FBBC04"/>
<path d="M7.22474 3.13571C8.23672 3.11597 9.2094 3.50091 9.93645 4.20169L11.9506 2.1783C10.6733 0.96426 8.98342 0.302955 7.22474 0.322695C4.55232 0.322695 2.10588 1.84271 0.907227 4.24118L3.25541 6.07704C3.81544 4.38923 5.37763 3.13571 7.22474 3.13571Z" fill="#EA4335"/>
</svg>
