<svg width="105" height="92" viewBox="0 0 105 92" fill="none" xmlns="http://www.w3.org/2000/svg">
<path fill-rule="evenodd" clip-rule="evenodd" d="M26.112 0.917574C26.0633 1.00203 20.1683 11.2157 13.0118 23.6149L0 46.159L8.92892 61.6486C13.84 70.1679 17.928 77.2185 18.0134 77.3164C18.2228 77.5559 20.7067 76.0308 20.5885 75.7354C20.5374 75.6071 19.2955 73.4323 17.829 70.9018C15.6584 67.1567 15.2196 66.2692 15.4699 66.1292C16.0514 65.8036 18.1916 66.221 19.6293 66.9404C21.6892 67.9707 23.0738 69.7189 23.7144 72.098L23.9522 72.981L25.6265 72.8493C27.9629 72.6655 30.2685 73.1094 32.4746 74.168C33.8829 74.8436 34.534 75.3252 35.878 76.6843C36.9411 77.7595 37.7879 78.8443 38.2277 79.6943C38.606 80.4253 38.9416 81.0558 38.9739 81.0954C39.006 81.1349 39.4753 81.0263 40.0167 80.8539C42.7533 79.9826 45.1347 80.3816 47.3742 82.0866C48.8103 83.1799 50.1008 85.8404 50.1008 87.708V88.4905L39.0093 88.4378L27.9175 88.3848L25.2055 83.6817C23.714 81.095 22.4031 78.9484 22.2924 78.9112C22.0215 78.8204 19.8374 80.0818 19.8374 80.3288C19.8374 80.4366 21.2723 83.0065 23.0259 86.0402L26.2144 91.5559L52.3808 91.504L78.5469 91.452L91.6235 68.8056L104.7 46.1593L91.6235 23.5129L78.5471 0.866454L60.8478 0.814106L43.1484 0.761963V2.29353V3.82511L49.0264 3.8795L54.9045 3.93369L55.0568 5.1526C55.4758 8.50918 56.8197 11.1766 59.3965 13.7662C60.961 15.3385 61.5436 15.7703 63.1876 16.5766C65.4752 17.6984 66.8736 18.0847 69.3178 18.2691L71.1124 18.4045L71.6614 19.7412C73.7657 24.8655 78.5872 28.885 84.0835 30.097C85.8216 30.4802 88.4416 30.5851 90.5015 30.3542L91.9487 30.1919L96.4827 38.0528C98.9765 42.3763 101.014 46.038 101.009 46.1897C101.006 46.3416 95.5521 55.8977 88.8908 67.4254L76.7794 88.3848L64.9736 88.4376L53.168 88.4903L53.1649 87.6196C53.1566 85.1996 51.9391 82.3728 50.1008 80.5055C47.9774 78.3486 45.5396 77.3604 42.3898 77.3798L40.5065 77.3912L39.4575 75.9807C36.8843 72.5203 32.5012 70.1736 27.8537 69.7682L26.1862 69.6228L25.5566 68.5073C23.5923 65.027 20.0667 63.0125 16.0545 63.0783C15.0423 63.0949 14.0334 63.1366 13.8126 63.1709C13.4799 63.2229 12.5802 61.7991 8.5539 54.8497C5.88234 50.2387 3.69663 46.3279 3.69683 46.1593C3.69683 45.9906 9.14731 36.4208 15.8089 24.8931L27.921 3.93369L34.0011 3.8795L40.0812 3.82531V2.29476V0.764213H33.1408C29.3236 0.764213 26.1606 0.833123 26.112 0.917574ZM83.4939 15.5579C87.1865 21.9512 90.1513 27.2385 90.0822 27.3076C90.0132 27.3767 89.0176 27.4273 87.8699 27.4203C81.1355 27.3784 75.3147 22.8184 73.7273 16.3406L73.3657 14.8655L72.3151 15.0228C71.7374 15.1095 70.4825 15.1661 69.5266 15.1489C63.9232 15.0485 58.7978 10.4548 58.1512 4.95405L58.0187 3.82736L67.3996 3.88052L76.7802 3.93369L83.4939 15.5579ZM70.3445 9.4547V10.9883H71.8781H73.4118V9.4547V7.92109H71.8781H70.3445V9.4547ZM26.8933 13.0587C26.4896 13.7476 26.1862 14.3306 26.2189 14.3545C26.5843 14.6195 28.6224 15.6914 28.7612 15.6914C28.9539 15.6914 30.3609 13.2609 30.236 13.144C30.0114 12.934 27.9689 11.8062 27.813 11.8062C27.7108 11.8062 27.2969 12.3698 26.8933 13.0587ZM76.9301 16.9694L76.9902 18.4519L78.4727 18.512L79.9552 18.5722V17.0295V15.4869H78.4126H76.8699L76.9301 16.9694ZM23.9381 18.1963C23.605 18.7869 23.3144 19.3617 23.2926 19.4739C23.2515 19.6847 25.2989 21.0057 25.6691 21.0071C25.8772 21.0079 27.3051 18.5859 27.1687 18.4634C26.8636 18.1896 24.9589 17.1228 24.7753 17.1228C24.6481 17.1228 24.2714 17.6058 23.9381 18.1963ZM47.8713 19.9062C36.8749 21.749 27.8736 30.821 26.0839 41.8651C23.9952 54.754 31.5864 67.2514 44.0336 71.4148C57.8705 76.0435 72.9887 68.4139 77.5979 54.4757C82.2037 40.5487 74.6562 25.583 60.6666 20.9037C59.5227 20.5209 57.7126 20.0661 56.6442 19.8931C54.2761 19.5093 50.2034 19.5154 47.8713 19.9062ZM20.8247 23.567C20.2863 24.5089 20.1441 24.923 20.3155 25.0524C20.7682 25.3939 22.4671 26.3245 22.6382 26.3245C22.9188 26.3245 24.1943 23.8498 24.0017 23.6795C23.9044 23.5934 23.3179 23.2391 22.6981 22.892L21.5714 22.261L20.8247 23.567ZM58.0756 23.318C66.545 25.5558 72.9652 31.977 75.1889 40.4338C75.8831 43.0738 76.0535 47.289 75.5766 50.0242C74.9902 53.3879 73.6874 56.6199 71.7663 59.478C70.641 61.1519 67.3427 64.4502 65.6688 65.5754C61.6309 68.2897 57.1315 69.6747 52.3501 69.6747C45.966 69.6747 40.34 67.3254 35.7615 62.7475C32.5836 59.5702 30.4948 55.8893 29.4045 51.5457C28.7884 49.0911 28.7412 43.6329 29.3146 41.1494C30.3384 36.7157 32.5069 32.8203 35.7596 29.571C39.3013 26.0333 43.3741 23.8662 48.1899 22.9575C50.7052 22.4827 55.5887 22.6608 58.0756 23.318ZM48.2533 26.7093C42.2851 28.0108 37.4033 31.8011 34.6579 37.2643C32.9691 40.6245 32.6439 42.0608 32.6439 46.1593C32.6439 50.2577 32.9691 51.694 34.6579 55.0542C36.6702 59.0588 39.4505 61.8391 43.4551 63.8515C46.3467 65.3047 48.2715 65.8014 51.5322 65.9359C54.4188 66.055 56.6735 65.7292 59.1618 64.8336C60.7619 64.2578 63.2623 62.9229 63.8857 62.3117C64.2706 61.9344 64.2628 61.9093 63.4191 60.7916C62.9472 60.1665 62.521 59.6551 62.4722 59.6551C62.4235 59.6551 61.8307 60.0125 61.1549 60.4493C58.358 62.2569 55.2253 63.0442 51.544 62.8642C48.7854 62.7295 47.3487 62.3794 45.075 61.2883C40.7635 59.2189 37.3431 55.1074 36.0612 50.4534C35.5466 48.5842 35.5466 43.7343 36.0612 41.8651C37.3431 37.2115 40.7625 33.101 45.075 31.0298C47.7114 29.7637 48.9481 29.5044 52.3501 29.5044C55.8334 29.5044 57.0385 29.7686 59.8137 31.1404C64.0632 33.2409 67.3705 37.2602 68.6389 41.8651C69.1536 43.7343 69.1536 48.5842 68.6389 50.4534C68.1171 52.3477 66.8626 54.853 65.6658 56.3905L64.6368 57.7125L65.5915 58.6838C66.1166 59.2181 66.6536 59.6551 66.7851 59.6551C67.2211 59.6551 69.133 56.9338 70.1576 54.8546C71.7346 51.6549 72.0562 50.1822 72.0562 46.1593C72.0562 42.0608 71.7311 40.6245 70.0423 37.2643C68.03 33.2597 65.2496 30.4794 61.2451 28.467C58.1934 26.9334 56.4389 26.502 52.8613 26.4057C50.6099 26.3451 49.6258 26.41 48.2533 26.7093ZM27.8122 79.7966V81.3302H29.3458H30.8795V79.7966V78.2629H29.3458H27.8122V79.7966ZM33.9467 84.4996V86.0333H35.4803H37.0139V84.4996V82.966H35.4803H33.9467V84.4996Z" fill="white"/>
</svg>
