<svg width="77" height="98" viewBox="0 0 77 98" fill="none" xmlns="http://www.w3.org/2000/svg">
<path fill-rule="evenodd" clip-rule="evenodd" d="M36.5697 0.904637C35.611 1.14658 34.3035 1.82563 32.3731 3.08398C29.3274 5.06909 29.2794 5.08159 24.8516 5.0388C21.22 5.00359 20.9347 5.02669 19.8651 5.4426C18.1074 6.12639 16.9153 7.46065 15.3205 10.5288C13.5115 14.0095 13.1512 14.3767 9.88864 16.0665C7.79392 17.1513 6.92858 17.7196 6.02992 18.6008C4.29546 20.3016 4.15253 20.8476 4.14515 25.7946C4.13852 30.3799 4.21898 30.0753 2.17158 33.2593C0.150691 36.4023 0 36.804 0 39.0464C0 41.292 0.174734 41.7577 2.15701 44.7978C4.19891 47.9292 4.13511 47.6858 4.14363 52.3928L4.15101 56.463L4.70342 57.6594C5.47619 59.3331 6.72204 60.3769 9.94392 62.0508C12.7768 63.5223 13.5406 64.1779 14.5213 65.98L15.0345 66.9227L9.73473 76.6705C4.01395 87.1928 4.0132 87.1945 4.80603 88.4945C5.52068 89.6667 5.96177 89.7712 10.6362 89.8763L14.8497 89.9709L17.1868 93.3785C18.5305 95.3381 19.7888 96.9671 20.1478 97.2121C21.3576 98.038 22.9159 97.5966 23.7986 96.1777C24.0438 95.7835 26.53 91.244 29.3233 86.0901C32.1167 80.9361 34.4608 76.6524 34.5323 76.5706C34.6037 76.4888 35.081 76.6101 35.5927 76.8403C36.9231 77.4386 39.3677 77.4433 40.6743 76.8502C41.1874 76.6173 41.6646 76.4926 41.7347 76.573C41.8049 76.6533 44.1433 80.9361 46.9312 86.0901C49.719 91.244 52.2056 95.7837 52.4568 96.1782C53.3627 97.6005 54.9082 98.0371 56.1168 97.2121C56.4757 96.9671 57.7341 95.3381 59.0778 93.3785L61.4148 89.9709L65.6283 89.8763C70.3028 89.7712 70.7439 89.6667 71.4585 88.4945C72.1735 87.3219 72.0068 86.7333 69.8155 82.6989C68.7078 80.6595 67.6723 78.8417 67.5144 78.6596C67.1258 78.211 65.9284 78.2199 65.517 78.6746C64.9294 79.3239 65.1475 80.0486 66.9052 83.2892C67.8412 85.0144 68.6596 86.5633 68.7239 86.7313C68.829 87.005 68.4824 87.0378 65.3659 87.048C61.2969 87.061 60.2557 87.1956 59.6228 87.7903C59.3688 88.029 58.2117 89.6182 57.0514 91.3219C55.8911 93.0257 54.8847 94.4197 54.8149 94.4197C54.586 94.4197 44.1654 75.0692 44.2606 74.821C44.3118 74.6877 45.058 74.226 45.9188 73.7951L47.484 73.0117L51.1852 73.0486C56.0575 73.0975 57.2345 72.7618 58.9241 70.8424L59.6864 69.9763L60.8761 72.2119C62.24 74.7752 62.6817 75.2994 63.4776 75.2994C64.1059 75.2994 64.8251 74.5652 64.8251 73.9238C64.8251 73.7162 64.0167 72.055 63.0287 70.2325L61.2321 66.919L61.7442 65.9781C62.7228 64.1802 63.4893 63.5216 66.3062 62.0582C69.5226 60.3874 70.6473 59.4495 71.4901 57.7359L72.1135 56.4683L72.1175 52.3954C72.1219 47.6876 72.0539 47.9474 74.1075 44.7978C76.0898 41.7577 76.2645 41.292 76.2645 39.0464C76.2645 36.8008 76.0898 36.3351 74.1075 33.2949C72.0649 30.1622 72.126 30.3932 72.1194 25.7946C72.1122 20.9013 71.9642 20.3402 70.2221 18.6006C69.328 17.7077 68.5021 17.1609 66.3625 16.0461C63.0813 14.3366 62.7451 13.9941 60.944 10.5288C59.3493 7.46065 58.1572 6.12639 56.3994 5.4426C55.3298 5.02669 55.0445 5.00359 51.413 5.0388C46.9646 5.08178 46.9778 5.08537 43.7682 3.00617C41.2779 1.39306 40.1013 0.894604 38.5658 0.80241C37.8589 0.760004 36.9606 0.806007 36.5697 0.904637ZM39.5974 3.89612C40.0932 4.08619 41.5177 4.89758 42.763 5.69931C46.0055 7.78665 46.5846 7.93582 51.1947 7.87108C56.3118 7.79914 56.4032 7.85366 58.7145 12.3536C60.4694 15.7704 61.4953 16.7766 65.1609 18.6756C69.2824 20.811 69.4899 21.1736 69.2907 25.8893C69.214 27.7023 69.2428 29.2212 69.3661 29.8641C69.6226 31.2015 70.4022 32.8574 71.6361 34.686C74.1441 38.4027 74.1509 39.6794 71.6819 43.3394C69.4361 46.668 69.1099 47.8777 69.2915 52.2035C69.4889 56.9097 69.2451 57.3236 64.9805 59.5188C61.5581 61.2805 60.424 62.3903 58.8173 65.5499C56.4388 70.2273 56.4352 70.2294 50.7273 70.2614C45.877 70.2887 46.0394 70.2427 42.3094 72.6411C38.4178 75.1434 37.7758 75.1407 33.887 72.6049C32.742 71.8585 31.2908 71.0304 30.6619 70.7652C29.5624 70.301 29.363 70.2819 25.4479 70.2629C21.6639 70.2448 21.3204 70.2143 20.5707 69.8319C19.5603 69.3166 18.9076 68.4217 17.4472 65.5499C15.8319 62.373 14.6947 61.2591 11.2899 59.5182C9.90606 58.8106 8.44534 57.9189 8.044 57.5367C6.98272 56.5262 6.82465 55.739 6.97307 52.2035C7.15462 47.8777 6.82843 46.668 4.58264 43.3394C2.11365 39.6794 2.12047 38.4027 4.62846 34.686C5.86238 32.8574 6.64196 31.2015 6.89848 29.8641C7.02172 29.2212 7.0505 27.7023 6.97382 25.8893C6.77467 21.1736 6.98215 20.811 11.1036 18.6756C14.7276 16.798 15.8209 15.7411 17.4472 12.5429C18.9025 9.68108 19.5565 8.78166 20.5713 8.24705C21.3391 7.84249 21.5576 7.82432 25.0698 7.8724C29.6824 7.93544 30.2833 7.78097 33.5163 5.69969C36.9326 3.50028 37.8529 3.22748 39.5974 3.89612ZM35.198 9.817C28.8309 10.4811 22.7832 13.2059 18.3391 17.4125C16.8439 18.8278 16.7252 18.9946 16.7778 19.6057C16.8504 20.4466 17.6095 21.0751 18.3332 20.8936C18.6028 20.8258 19.4833 20.1678 20.2901 19.4311C23.8954 16.1392 28.0373 14.0477 33.0209 13.0023C35.5913 12.4632 40.0214 12.4089 42.6235 12.8846C46.3234 13.561 50.194 15.1419 53.2442 17.2228C56.4013 19.3764 60.0895 23.6365 61.8847 27.2029C64.787 32.9693 65.4206 40.1059 63.5913 46.4295C61.5595 53.4529 56.5015 59.4984 49.8981 62.7958C47.8433 63.822 44.9304 64.7892 42.6757 65.194C40.2785 65.6243 35.9938 65.622 33.5888 65.1888C24.2013 63.4985 16.2985 56.83 13.1512 47.944C11.7384 43.9544 11.2727 39.1556 11.9023 35.0709C12.2925 32.5392 13.4098 29.0886 14.561 26.8597C15.4797 25.0809 15.617 24.2377 15.0687 23.7416C14.6097 23.326 13.4742 23.3362 13.0923 23.7595C12.57 24.3386 10.91 27.8352 10.3239 29.5911C9.17892 33.0204 8.89968 34.8745 8.89968 39.0464C8.89968 42.2749 8.9631 43.1255 9.32998 44.8204C10.5336 50.381 13.1124 55.3008 16.8823 59.2284C21.5358 64.0766 27.1117 66.9951 33.8728 68.1209C35.5747 68.4043 40.6762 68.4058 42.3918 68.1234C49.1596 67.0093 54.7861 64.0528 59.4267 59.1722C63.2258 55.1768 65.7211 50.3895 66.9505 44.738C67.2995 43.1332 67.3649 42.2353 67.3649 39.0464C67.3649 35.8245 67.3011 34.9639 66.9363 33.2724C65.376 26.0358 61.451 19.8813 55.5897 15.4804C49.7845 11.1215 42.3867 9.06695 35.198 9.817ZM36.3338 19.9016C35.6411 20.3105 35.3589 20.7739 33.0209 25.3433L30.4652 30.3381L25.2591 31.1023C22.0216 31.5777 19.8242 31.9893 19.4477 32.1907C17.9366 32.9994 17.214 35.2168 17.9794 36.697C18.163 37.052 20.0139 39.0038 22.0924 41.0341L25.8714 44.7257L24.9527 50.1453L24.0341 55.5649L24.4099 56.4675C24.9623 57.7936 25.9291 58.5013 27.3264 58.6024C28.5639 58.6917 28.705 58.6306 35.1048 55.2317C36.6723 54.3991 38.0308 53.7179 38.1238 53.7179C38.2165 53.7179 40.4076 54.8298 42.9924 56.1888L47.6925 58.6597L48.8686 58.594C49.8427 58.5397 50.1679 58.4288 50.7618 57.949C51.175 57.6153 51.6379 56.9877 51.8546 56.4675L52.2304 55.5649L51.3115 50.1453L50.3926 44.7257L54.1741 41.0341C56.2538 39.0038 58.1047 37.052 58.2872 36.697C59.0494 35.2136 58.3257 32.996 56.8169 32.1922C56.4435 31.9932 54.2163 31.5758 51.0054 31.1031L45.7994 30.3366L43.2437 25.3426C40.9059 20.7741 40.6234 20.3103 39.9307 19.9016C39.3823 19.5779 38.8865 19.4546 38.1323 19.4546C37.3781 19.4546 36.8823 19.5779 36.3338 19.9016ZM40.8773 26.9731C43.1397 31.5408 43.6308 32.3094 44.6116 32.8196C44.8954 32.9672 47.4407 33.4295 50.2678 33.8468C53.095 34.264 55.4824 34.6511 55.5733 34.7072C56.0562 35.0057 55.4192 35.8041 51.954 39.2431C48.9837 42.1908 48.0997 43.1822 47.8437 43.8526C47.5196 44.7011 47.5234 44.7408 48.4264 50.055C48.9264 52.9965 49.2802 55.4925 49.2126 55.6018C48.951 56.0251 48.203 55.7209 43.7639 53.3867C39.498 51.1435 39.0998 50.9729 38.1323 50.9729C37.1641 50.9729 36.77 51.1422 32.512 53.3867C28.0973 55.7137 27.3168 56.0304 27.0519 55.6018C26.9843 55.4925 27.3382 52.9965 27.8381 50.055C28.7411 44.7408 28.7449 44.7011 28.4208 43.8526C28.1649 43.1822 27.2808 42.1908 24.3105 39.2431C20.838 35.7969 20.208 35.0061 20.6951 34.7049C20.788 34.6476 23.1648 34.2657 25.9772 33.8564C28.7896 33.4469 31.3332 32.9854 31.6298 32.8306C32.6614 32.292 33.2049 31.4459 35.3008 27.1187C36.4603 24.7245 37.5004 22.6551 37.612 22.5199C37.7237 22.3848 37.9929 22.2996 38.2103 22.3306C38.5207 22.3749 39.0926 23.3705 40.8773 26.9731ZM18.8887 72.1632C20.2776 72.967 21.1246 73.0882 25.0793 73.0486L28.7805 73.0117L30.3457 73.7951C31.2065 74.226 31.9528 74.6877 32.0039 74.821C32.0991 75.0692 21.6785 94.4197 21.4497 94.4197C21.3798 94.4197 20.3734 93.0257 19.2131 91.3219C18.0529 89.6182 16.8935 88.0269 16.6368 87.7855C16.0164 87.203 14.9408 87.0673 10.804 87.0504C7.74224 87.0379 7.4348 87.0071 7.54346 86.7239C7.62922 86.5005 15.6613 71.6193 16.4988 70.1325C16.5454 70.0498 16.9251 70.3707 17.3431 70.8453C17.7609 71.32 18.4565 71.9132 18.8887 72.1632Z" fill="white"/>
</svg>
