<svg width="50" height="50" viewBox="0 0 50 50" fill="none" xmlns="http://www.w3.org/2000/svg">
<g clip-path="url(#clip0_1704_2001)">
<path d="M13.8889 5C13.8889 6.32608 13.3568 7.59785 12.4096 8.53553C11.4625 9.47322 10.1779 10 8.83838 10C7.49891 10 6.21429 9.47322 5.26714 8.53553C4.31998 7.59785 3.78788 6.32608 3.78788 5C3.78788 3.67392 4.31998 2.40215 5.26714 1.46447C6.21429 0.526784 7.49891 0 8.83838 0C10.1779 0 11.4625 0.526784 12.4096 1.46447C13.3568 2.40215 13.8889 3.67392 13.8889 5ZM5.0505 12.5C2.24747 12.5 0 14.725 0 17.5V32.5H5.0505V50H14.1667C12.4828 48.3725 11.1441 46.4285 10.2291 44.282C9.31416 42.1355 8.84134 39.8298 8.83838 37.5C8.84378 34.4333 9.66311 31.4218 11.2143 28.7673C12.7655 26.1127 14.9941 23.9084 17.6768 22.375V17.5C17.6768 14.725 15.4293 12.5 12.6263 12.5M25.2525 15V35H39.1414L45.9596 44L50 41L41.6667 30H30.303V15M22.7273 25.575C20.1641 26.373 17.9249 27.9598 16.3353 30.1044C14.7457 32.2491 13.8887 34.8399 13.8889 37.5C13.8889 40.8152 15.2192 43.9946 17.587 46.3388C19.9549 48.683 23.1665 50 26.5152 50C29.8638 50 33.0754 48.683 35.4433 46.3388C37.8112 43.9946 39.1414 40.8152 39.1414 37.5H34.0909C34.0909 39.4891 33.2928 41.3968 31.872 42.8033C30.4513 44.2098 28.5244 45 26.5152 45C24.5059 45 22.579 44.2098 21.1583 42.8033C19.7375 41.3968 18.9394 39.4891 18.9394 37.5C18.943 36.1869 19.2947 34.8977 19.9594 33.7614C20.6242 32.6252 21.5786 31.6815 22.7273 31.025V25.575Z" fill="black"/>
<circle cx="28" cy="8" r="5" fill="#060606"/>
</g>
<defs>
<clipPath id="clip0_1704_2001">
<rect width="50" height="50" fill="white"/>
</clipPath>
</defs>
</svg>
