<svg width="145" height="83" viewBox="0 0 145 83" fill="none" xmlns="http://www.w3.org/2000/svg">
<path d="M0 77.5183C0 78.1693 0.456055 78.731 1.09265 78.8641L16.8586 82.1624C17.7119 82.3409 18.5133 81.6891 18.5133 80.8166V32.7965C18.5133 32.6214 18.5495 32.4492 18.5855 32.2774C18.5946 32.2342 18.6036 32.1911 18.6121 32.1479C18.6208 32.1036 18.6276 32.0586 18.6324 32.0128C18.9062 29.4238 19.6519 27.1721 20.8696 25.2577C22.4403 22.6758 24.5162 20.7112 27.0968 19.364C29.7896 18.0171 32.8191 17.3437 36.1852 17.3437C41.1221 17.3437 45.2736 18.8589 48.6396 21.8898C52.0057 24.8086 53.6887 28.9621 53.6887 34.3505V81.1337C53.6887 81.8929 54.3038 82.5086 55.0624 82.5086H70.8282C71.5871 82.5086 72.2019 81.8929 72.2019 81.1337V33.0172C72.2019 32.8684 72.2281 32.7214 72.2543 32.5746C72.261 32.5369 72.2678 32.4991 72.2741 32.4614C72.2804 32.4236 72.2853 32.3852 72.2887 32.3464C72.5321 29.6168 73.2887 27.2538 74.5583 25.2577C76.1289 22.6758 78.2609 20.7112 80.9538 19.364C83.6467 18.0171 86.6202 17.3437 89.8739 17.3437C94.8108 17.3437 98.9623 18.8589 102.328 21.8898C105.694 24.8086 107.377 28.9621 107.377 34.3505V81.1337C107.377 81.3008 107.407 81.461 107.462 81.6093L125.891 67.4084V30.3092C125.891 24.0229 124.488 18.6345 121.683 14.1442C118.878 9.65384 115.119 6.1741 110.407 3.70441C105.694 1.23471 100.421 0 94.5864 0C88.8639 0 83.5907 1.29081 78.7658 3.8727C75.0479 5.82124 71.8537 8.39846 69.1833 11.6047C68.4622 12.4706 67.0818 12.4311 66.4027 11.5318C63.9483 8.28123 60.8884 5.6722 57.2232 3.70441C52.6227 1.23471 47.4616 0 41.7392 0C36.0167 0 30.8556 1.29081 26.2553 3.8727C24.5457 4.79048 22.9679 5.8478 21.5217 7.04465C20.3941 7.97793 18.5133 7.22665 18.5133 5.76295V3.05873C18.5133 2.2992 17.8983 1.68377 17.1397 1.68377H1.37367C0.615013 1.68377 0 2.29948 0 3.05873V77.5183Z" fill="white"/>
<path d="M125.891 68.4136L107.942 82.2447C108.169 82.4106 108.448 82.5086 108.751 82.5086H124.298C125.178 82.5086 125.891 81.7957 125.891 80.9162V68.4136Z" fill="white"/>
<path d="M136.854 71.2595C137.467 70.1979 138.999 70.1979 139.612 71.2595L144.784 80.2167C145.397 81.2783 144.631 82.6052 143.405 82.6052H133.061C131.835 82.6052 131.069 81.2783 131.682 80.2167L136.854 71.2595Z" fill="white"/>
</svg>
