<svg width="50" height="50" viewBox="0 0 50 50" fill="none" xmlns="http://www.w3.org/2000/svg">
<g clip-path="url(#clip0_1704_2003)">
<path d="M34.2105 43.0556C27.6316 43.0556 21.8947 39.1111 19.0526 33.3333H34.2105L36.8421 27.7778H17.3158C17.1842 26.8611 17.1053 25.9444 17.1053 25C17.1053 24.0556 17.1842 23.1389 17.3158 22.2222H34.2105L36.8421 16.6667H19.0526C20.4938 13.7366 22.6695 11.2805 25.3424 9.56611C28.0153 7.85171 31.0829 6.94487 34.2105 6.94445C38.4474 6.94445 42.3421 8.58334 45.3421 11.3056L50 6.3889C45.6669 2.27075 40.0412 -0.00554636 34.2105 1.01487e-05C23.8947 1.01487e-05 15.1579 6.94445 11.8421 16.6667H2.63158L0 22.2222H10.6842C10.5263 23.1389 10.5263 24.0556 10.5263 25C10.5263 25.9444 10.5263 26.8611 10.6842 27.7778H2.63158L0 33.3333H11.8421C15.1579 43.0556 23.8947 50 34.2105 50C40.2895 50 45.8158 47.5833 50 43.6111L45.3158 38.6944C42.3421 41.4167 38.4737 43.0556 34.2105 43.0556Z" fill="black"/>
</g>
<defs>
<clipPath id="clip0_1704_2003">
<rect width="50" height="50" fill="white"/>
</clipPath>
</defs>
</svg>
