<svg width="50" height="50" viewBox="0 0 50 50" fill="none" xmlns="http://www.w3.org/2000/svg">
<path d="M18.2319 17.3766C18.4233 17.5676 18.5752 17.7945 18.6789 18.0443C18.7825 18.294 18.8359 18.5618 18.8359 18.8322C18.8359 19.1027 18.7825 19.3704 18.6789 19.6202C18.5752 19.87 18.4233 20.0969 18.2319 20.2878L15.5715 22.9441H34.4284L31.7681 20.2878C31.5769 20.0967 31.4253 19.8698 31.3218 19.62C31.2184 19.3702 31.1651 19.1026 31.1651 18.8322C31.1651 18.5619 31.2184 18.2942 31.3218 18.0445C31.4253 17.7947 31.5769 17.5678 31.7681 17.3766C31.9592 17.1855 32.1861 17.0339 32.4359 16.9304C32.6856 16.827 32.9533 16.7737 33.2237 16.7737C33.494 16.7737 33.7617 16.827 34.0114 16.9304C34.2612 17.0339 34.4881 17.1855 34.6792 17.3766L40.847 23.5444C41.0385 23.7354 41.1904 23.9623 41.294 24.212C41.3977 24.4618 41.451 24.7296 41.451 25C41.451 25.2704 41.3977 25.5382 41.294 25.788C41.1904 26.0377 41.0385 26.2646 40.847 26.4556L34.6792 32.6234C34.2932 33.0094 33.7696 33.2263 33.2237 33.2263C32.6777 33.2263 32.1541 33.0094 31.7681 32.6234C31.382 32.2373 31.1651 31.7137 31.1651 31.1678C31.1651 30.6218 31.382 30.0982 31.7681 29.7122L34.4284 27.0559H15.5715L18.2319 29.7122C18.423 29.9033 18.5747 30.1303 18.6781 30.38C18.7816 30.6298 18.8348 30.8974 18.8348 31.1678C18.8348 31.4381 18.7816 31.7058 18.6781 31.9555C18.5747 32.2053 18.423 32.4322 18.2319 32.6234C18.0407 32.8145 17.8138 32.9661 17.564 33.0696C17.3143 33.173 17.0466 33.2263 16.7763 33.2263C16.506 33.2263 16.2383 33.173 15.9885 33.0696C15.7388 32.9661 15.5118 32.8145 15.3207 32.6234L9.15293 26.4556C8.96147 26.2646 8.80957 26.0377 8.70592 25.788C8.60228 25.5382 8.54893 25.2704 8.54893 25C8.54893 24.7296 8.60228 24.4618 8.70592 24.212C8.80957 23.9623 8.96147 23.7354 9.15293 23.5444L15.3207 17.3766C15.5117 17.1852 15.7385 17.0333 15.9883 16.9296C16.2381 16.826 16.5059 16.7726 16.7763 16.7726C17.0467 16.7726 17.3145 16.826 17.5643 16.9296C17.814 17.0333 18.0409 17.1852 18.2319 17.3766V17.3766ZM39.3914 0.328949C42.1177 0.328949 44.7324 1.41198 46.6602 3.33978C48.588 5.26758 49.671 7.88223 49.671 10.6086V39.3914C49.671 42.1178 48.588 44.7324 46.6602 46.6602C44.7324 48.588 42.1177 49.6711 39.3914 49.6711H10.6085C7.8822 49.6711 5.26755 48.588 3.33975 46.6602C1.41195 44.7324 0.328918 42.1178 0.328918 39.3914V10.6086C0.328918 7.88223 1.41195 5.26758 3.33975 3.33978C5.26755 1.41198 7.8822 0.328949 10.6085 0.328949H39.3914ZM41.4473 4.7903V18.3388L37.5822 14.4737C37.502 14.3934 37.4197 14.3153 37.3355 14.2393V4.44079H12.6644V14.2352L12.4177 14.4696L8.5526 18.3347V4.7903C7.34957 5.21563 6.30806 6.00363 5.57163 7.04568C4.8352 8.08773 4.44009 9.33254 4.44076 10.6086V39.3914C4.44009 40.6675 4.8352 41.9123 5.57163 42.9543C6.30806 43.9964 7.34957 44.7844 8.5526 45.2097V31.6612L12.4177 35.5263L12.6644 35.7607V45.5592H37.3355V35.7648L37.5822 35.5304L41.4473 31.6653V45.2097C42.6504 44.7844 43.6919 43.9964 44.4283 42.9543C45.1647 41.9123 45.5599 40.6675 45.5592 39.3914V10.6086C45.5599 9.33254 45.1647 8.08773 44.4283 7.04568C43.6919 6.00363 42.6504 5.21563 41.4473 4.7903ZM37.5822 35.5304L37.3355 35.2796L37.5822 35.5304Z" fill="black"/>
</svg>
