<svg width="38" height="38" viewBox="0 0 38 38" fill="none" xmlns="http://www.w3.org/2000/svg">
<path fill-rule="evenodd" clip-rule="evenodd" d="M19 0.726349C8.87496 0.726349 0.666626 8.93468 0.666626 19.0597C0.666626 29.1847 8.87496 37.393 19 37.393C29.125 37.393 37.3333 29.1847 37.3333 19.0597C37.3333 8.93468 29.125 0.726349 19 0.726349ZM26.9466 15.9597C27.093 15.7924 27.2044 15.5976 27.2743 15.3866C27.3442 15.1757 27.3712 14.9529 27.3537 14.7313C27.3363 14.5098 27.2747 14.294 27.1726 14.0966C27.0705 13.8992 26.9299 13.7242 26.7592 13.5819C26.5885 13.4396 26.391 13.333 26.1785 13.2681C25.9659 13.2033 25.7425 13.1816 25.5214 13.2044C25.3004 13.2272 25.0861 13.2939 24.8912 13.4007C24.6963 13.5075 24.5248 13.6523 24.3866 13.8263L17.22 22.4247L13.5116 18.7147C13.1973 18.4111 12.7763 18.2431 12.3393 18.2469C11.9023 18.2507 11.4843 18.426 11.1753 18.735C10.8662 19.044 10.691 19.462 10.6872 19.899C10.6834 20.336 10.8514 20.757 11.155 21.0713L16.155 26.0713C16.3187 26.235 16.5148 26.3628 16.7306 26.4464C16.9465 26.5301 17.1775 26.5679 17.4087 26.5574C17.64 26.5469 17.8666 26.4883 18.074 26.3854C18.2814 26.2825 18.465 26.1375 18.6133 25.9597L26.9466 15.9597Z" fill="#545454"/>
</svg>
