<svg width="51" height="17" viewBox="0 0 51 17" fill="none" xmlns="http://www.w3.org/2000/svg">
<path d="M25.9394 5.261C25.9109 7.50837 27.9422 8.76258 29.4725 9.5082C31.0447 10.2733 31.5728 10.7639 31.5668 11.448C31.5548 12.4952 30.3126 12.9573 29.1499 12.9753C27.1216 13.0068 25.9424 12.4277 25.0047 11.9896L24.2741 15.4087C25.2148 15.8423 26.9565 16.2203 28.7628 16.2368C33.0025 16.2368 35.7765 14.144 35.7915 10.8989C35.808 6.78075 30.0951 6.55271 30.1341 4.7119C30.1476 4.15381 30.6802 3.55821 31.8474 3.40669C32.425 3.33018 34.0197 3.27167 35.8275 4.1043L36.5371 0.796255C35.565 0.442197 34.3153 0.10314 32.7595 0.10314C28.7688 0.10314 25.9619 2.22449 25.9394 5.261ZM43.3558 0.388187C42.5816 0.388187 41.929 0.839763 41.638 1.53288L35.5815 15.9938H39.8182L40.6613 13.6639H45.8387L46.3278 15.9938H50.0619L46.8033 0.388187H43.3558ZM43.9484 4.60389L45.1711 10.4639H41.8225L43.9484 4.60389ZM20.8025 0.388187L17.463 15.9938H21.5001L24.8382 0.388187H20.8025ZM14.83 0.388187L10.6278 11.0099L8.92805 1.97845C8.72852 0.970284 7.94089 0.388187 7.06624 0.388187H0.196602L0.100586 0.841262C1.51082 1.14731 3.11309 1.6409 4.08375 2.16898C4.67785 2.49154 4.84737 2.77358 5.04241 3.54021L8.26194 15.9938H12.5286L19.0697 0.388187H14.83Z" fill="url(#paint0_linear_1515_2123)"/>
<defs>
<linearGradient id="paint0_linear_1515_2123" x1="23.0699" y1="16.5605" x2="23.5369" y2="-0.0090561" gradientUnits="userSpaceOnUse">
<stop stop-color="#222357"/>
<stop offset="1" stop-color="#254AA5"/>
</linearGradient>
</defs>
</svg>
